<?xml version="1.0" standalone="no"?>
<!DOCTYPE svg PUBLIC "-//W3C//DTD SVG 1.1//EN" "http://www.w3.org/Graphics/SVG/1.1/DTD/svg11.dtd"><svg t="1700263613633"
    class="icon" viewBox="0 0 1024 1024" version="1.1" xmlns="http://www.w3.org/2000/svg" p-id="2428"
    xmlns:xlink="http://www.w3.org/1999/xlink" width="200" height="200">
    <path
        d="M829.44 692.906667l-109.226667-20.48c-6.826667 0-10.24 0-17.066666 6.826666-54.613333 58.026667-122.88 92.16-197.973334 92.16s-143.36-34.133333-197.973333-92.16c-3.413333-3.413333-10.24-6.826667-17.066667-6.826666l-112.64 20.48c-102.4 37.546667-177.493333 139.946667-177.493333 256V989.866667c0 10.24 6.826667 17.066667 17.066667 17.066666h989.866666c10.24 0 17.066667-6.826667 17.066667-17.066666v-30.72c0-116.053333-81.92-228.693333-194.56-266.24zM426.666667 358.4h-34.133334c-10.24 0-17.066667 6.826667-17.066666 17.066667s6.826667 17.066667 17.066666 17.066666h34.133334c10.24 0 17.066667-6.826667 17.066666-17.066666s-6.826667-17.066667-17.066666-17.066667zM631.466667 358.4h-34.133334c-10.24 0-17.066667 6.826667-17.066666 17.066667s6.826667 17.066667 17.066666 17.066666h34.133334c10.24 0 17.066667-6.826667 17.066666-17.066666s-6.826667-17.066667-17.066666-17.066667z"
        fill="#008092" p-id="2429"></path>
    <path
        d="M273.066667 481.28c30.72 126.293333 112.64 204.8 211.626666 215.04l10.24 40.96c3.413333 6.826667 10.24 13.653333 17.066667 13.653333s13.653333-6.826667 17.066667-13.653333l10.24-40.96c98.986667-13.653333 180.906667-95.573333 211.626666-211.626667v-3.413333-293.546667c0-6.826667-3.413333-10.24-6.826666-13.653333-3.413333-3.413333-10.24-6.826667-13.653334-6.826667C692.906667 75.093333 610.986667 20.48 512 20.48 416.426667 20.48 331.093333 78.506667 293.546667 170.666667h-10.24c-6.826667 3.413333-10.24 10.24-10.24 17.066666v293.546667z m331.093333-17.066667c-6.826667-3.413333-17.066667 0-23.893333 6.826667s0 17.066667 6.826666 23.893333c10.24 3.413333 23.893333 10.24 40.96 13.653334l-10.24 10.24-3.413333 3.413333c-3.413333 6.826667-13.653333 10.24-20.48 10.24h-6.826667c-6.826667 0-27.306667 0-30.72-10.24l-10.24-47.786667c-3.413333-6.826667-10.24-13.653333-17.066666-13.653333h-44.373334c-6.826667 0-13.653333 6.826667-17.066666 13.653333l-10.24 37.546667c-3.413333 10.24-13.653333 20.48-23.893334 20.48h-6.826666c-10.24 0-17.066667-3.413333-20.48-10.24 0 0 0-3.413333-3.413334-3.413333l-10.24-10.24c17.066667-3.413333 30.72-6.826667 40.96-13.653334 6.826667-3.413333 10.24-13.653333 6.826667-23.893333s-13.653333-10.24-23.893333-6.826667c-13.653333 6.826667-51.2 13.653333-109.226667 13.653334V197.973333c3.413333 0 6.826667-3.413333 10.24-3.413333 3.413333 0 6.826667-3.413333 10.24-3.413333 3.413333 0 6.826667-3.413333 6.826667-3.413334 3.413333 0 6.826667-3.413333 10.24-3.413333 3.413333 0 6.826667 0 6.826666-3.413333 3.413333 0 6.826667-3.413333 10.24-3.413334 3.413333 0 6.826667 0 6.826667-3.413333 3.413333 0 6.826667 0 10.24-3.413333 3.413333 0 6.826667 0 10.24-3.413334 3.413333 0 6.826667 0 6.826667-3.413333 3.413333 0 6.826667 0 10.24-3.413333h6.826666c3.413333 0 6.826667 0 10.24-3.413334h98.986667c6.826667 0 30.72 0 64.853333 3.413334h10.24c3.413333 0 10.24 0 13.653334 3.413333 6.826667 0 10.24 3.413333 17.066666 3.413333 3.413333 0 6.826667 0 10.24 3.413334 6.826667 0 13.653333 3.413333 23.893334 6.826666h6.826666c6.826667 3.413333 13.653333 3.413333 20.48 6.826667h3.413334c6.826667 3.413333 17.066667 6.826667 23.893333 10.24 3.413333 3.413333 6.826667 3.413333 10.24 6.826667v279.893333c-68.266667-3.413333-105.813333-10.24-122.88-17.066667zM546.133333 662.186667l13.653334-58.026667c0-3.413333 0-10.24-3.413334-13.653333 0-6.826667-3.413333-10.24-10.24-10.24h-68.266666c-6.826667 0-10.24 3.413333-13.653334 6.826666-3.413333 3.413333-3.413333 10.24-3.413333 13.653334l13.653333 61.44c-68.266667-13.653333-126.293333-68.266667-157.013333-150.186667h30.72l30.72 27.306667c10.24 17.066667 30.72 23.893333 47.786667 23.893333h6.826666c27.306667 0 51.2-17.066667 58.026667-44.373333l6.826667-23.893334h17.066666l10.24 30.72c3.413333 13.653333 17.066667 37.546667 61.44 37.546667h6.826667c20.48 0 37.546667-10.24 47.786667-23.893333l30.72-27.306667h30.72c-27.306667 78.506667-85.333333 133.12-157.013334 150.186667z"
        fill="#008092" p-id="2430"></path>
    <path
        d="M382.293333 256c-20.48 0-37.546667 6.826667-54.613333 23.893333-6.826667 6.826667-6.826667 17.066667 0 23.893334 6.826667 6.826667 17.066667 6.826667 23.893333 0 6.826667-10.24 17.066667-13.653333 27.306667-13.653334 27.306667 0 58.026667 34.133333 68.266667 44.373334 3.413333 3.413333 6.826667 6.826667 13.653333 6.826666 3.413333 0 6.826667 0 10.24-3.413333 6.826667-6.826667 10.24-17.066667 3.413333-23.893333-3.413333-6.826667-44.373333-54.613333-92.16-58.026667zM696.32 279.893333c-13.653333-17.066667-34.133333-23.893333-51.2-23.893333-47.786667 3.413333-88.746667 51.2-92.16 58.026667-6.826667 6.826667-3.413333 17.066667 3.413333 23.893333 3.413333 3.413333 6.826667 3.413333 10.24 3.413333 3.413333 0 10.24-3.413333 13.653334-6.826666 10.24-13.653333 40.96-44.373333 68.266666-44.373334 10.24 0 17.066667 3.413333 27.306667 10.24 6.826667 6.826667 17.066667 6.826667 23.893333 0 0-3.413333 3.413333-13.653333-3.413333-20.48z"
        fill="#008092" p-id="2431"></path>
</svg>