<svg width="15" height="21" viewBox="0 0 15 21" fill="none" xmlns="http://www.w3.org/2000/svg">
    <g opacity="0.28">
        <path
            d="M0.5 3C0.5 1.61929 1.61929 0.5 3 0.5H9C10.3807 0.5 11.5 1.61929 11.5 3V13C11.5 14.3807 10.3807 15.5 9 15.5H3C1.61929 15.5 0.5 14.3807 0.5 13V3Z"
            fill="#EFEFEF" stroke="black" />
        <path
            d="M3.5 8C3.5 6.61929 4.61929 5.5 6 5.5H12C13.3807 5.5 14.5 6.61929 14.5 8V18C14.5 19.3807 13.3807 20.5 12 20.5H6C4.61929 20.5 3.5 19.3807 3.5 18V8Z"
            fill="#EFEFEF" stroke="black" />
    </g>
</svg>