<svg width="106" height="106" viewBox="0 0 106 106" fill="none" xmlns="http://www.w3.org/2000/svg">
    <path
        d="M67.88 0L44.88 23.01C32.23 35.67 16.96 50.95 10.94 56.98L0 67.92L18.84 86.76C29.2 97.12 37.69 105.6 37.72 105.6C37.74 105.6 53.03 90.33 71.69 71.67L105.62 37.74L105.61 18.88L105.6 0.019989L86.74 0.00997925L67.88 0ZM85.97 12.45C86.13 12.45 86.45 12.47 86.69 12.49C86.92 12.51 87.29 12.57 87.52 12.62C87.74 12.66 88.09 12.76 88.29 12.82C88.49 12.89 88.88 13.05 89.15 13.18C89.42 13.31 89.8 13.53 89.99 13.66C90.18 13.78 90.49 14.02 90.68 14.18C90.87 14.34 91.17 14.64 91.34 14.84C91.52 15.04 91.79 15.4 91.95 15.63C92.11 15.86 92.33 16.24 92.44 16.47C92.55 16.7 92.7 17.08 92.78 17.31C92.86 17.54 92.96 17.92 93 18.15C93.05 18.38 93.1 18.79 93.12 19.07C93.14 19.35 93.14 19.79 93.12 20.06C93.11 20.33 93.06 20.74 93.01 20.98C92.96 21.22 92.86 21.6 92.78 21.84C92.7 22.07 92.55 22.45 92.44 22.68C92.33 22.91 92.11 23.28 91.95 23.51C91.79 23.75 91.52 24.11 91.34 24.31C91.17 24.51 90.87 24.81 90.68 24.97C90.49 25.13 90.18 25.36 90 25.48C89.81 25.61 89.5 25.79 89.29 25.9C89.09 26 88.77 26.15 88.57 26.22C88.37 26.3 88.03 26.41 87.8 26.46C87.58 26.52 87.26 26.59 87.1 26.61C86.94 26.63 86.6 26.66 86.35 26.68C86.08 26.69 85.68 26.68 85.41 26.66C85.16 26.63 84.78 26.57 84.58 26.53C84.38 26.49 84.04 26.4 83.82 26.33C83.61 26.26 83.21 26.09 82.95 25.96C82.68 25.83 82.29 25.61 82.09 25.48C81.89 25.34 81.55 25.08 81.34 24.9C81.13 24.72 80.83 24.41 80.67 24.22C80.51 24.03 80.27 23.71 80.13 23.52C80 23.32 79.79 22.94 79.66 22.68C79.52 22.41 79.36 22.02 79.3 21.82C79.23 21.61 79.14 21.27 79.09 21.06C79.05 20.85 78.99 20.43 78.96 20.13C78.92 19.7 78.92 19.46 78.96 19.03C78.99 18.72 79.05 18.3 79.09 18.09C79.14 17.87 79.23 17.53 79.3 17.33C79.36 17.12 79.52 16.74 79.66 16.47C79.79 16.2 80 15.82 80.13 15.63C80.27 15.43 80.51 15.12 80.67 14.92C80.83 14.73 81.13 14.43 81.34 14.25C81.55 14.06 81.89 13.8 82.09 13.67C82.29 13.53 82.68 13.31 82.95 13.18C83.21 13.05 83.6 12.89 83.81 12.82C84.02 12.75 84.37 12.66 84.59 12.61C84.81 12.57 85.14 12.51 85.33 12.5C85.52 12.48 85.81 12.46 85.97 12.45Z"
        fill="#008093" />
</svg>